<svg xmlns="http://www.w3.org/2000/svg" viewBox="0 0 100 100">
  <!-- linker tak -->
  <g fill="none" stroke="#2e7d32" stroke-width="3.5" stroke-linecap="round" stroke-linejoin="round">
    <path d="M18 50 C 16 36, 22 22, 32 18"/>
    <ellipse cx="20" cy="40" rx="7" ry="4" fill="#4CAF50" stroke="none" transform="rotate(-40 20 40)"/>
    <ellipse cx="18" cy="28" rx="6" ry="3.5" fill="#4CAF50" stroke="none" transform="rotate(-55 18 28)"/>
    <ellipse cx="26" cy="19" rx="6" ry="3.5" fill="#4CAF50" stroke="none" transform="rotate(-70 26 19)"/>
    <ellipse cx="22" cy="50" rx="6" ry="3" fill="#66BB6A" stroke="none" transform="rotate(-30 22 50)"/>
    <!-- rechter tak -->
    <path d="M82 50 C 84 36, 78 22, 68 18"/>
    <ellipse cx="80" cy="40" rx="7" ry="4" fill="#4CAF50" stroke="none" transform="rotate(40 80 40)"/>
    <ellipse cx="82" cy="28" rx="6" ry="3.5" fill="#4CAF50" stroke="none" transform="rotate(55 82 28)"/>
    <ellipse cx="74" cy="19" rx="6" ry="3.5" fill="#4CAF50" stroke="none" transform="rotate(70 74 19)"/>
    <ellipse cx="78" cy="50" rx="6" ry="3" fill="#66BB6A" stroke="none" transform="rotate(30 78 50)"/>
    <!-- boogje onderin -->
    <path d="M30 72 C 40 82, 60 82, 70 72"/>
    <ellipse cx="34" cy="74" rx="6" ry="3" fill="#4CAF50" stroke="none" transform="rotate(20 34 74)"/>
    <ellipse cx="50" cy="80" rx="6" ry="3" fill="#4CAF50" stroke="none" transform="rotate(0 50 80)"/>
    <ellipse cx="66" cy="74" rx="6" ry="3" fill="#4CAF50" stroke="none" transform="rotate(-20 66 74)"/>
  </g>
  <!-- kleine strikje onderin -->
  <path d="M44 78 C 46 82, 50 83, 50 83 C 50 83, 54 82, 56 78" fill="none" stroke="#c62828" stroke-width="2.5" stroke-linecap="round"/>
</svg>
